<svg xmlns="http://www.w3.org/2000/svg" width="30" height="30" viewBox="0 0 30 30"><path d="M23.033 18.471h-3.996c-1.066 0-1.998 1.275-1.998 2.232 0 .479-1.498.73-2.497.73-1.015 0-2.498-.004-2.498-1.689 0-1.916-.001-2.875.999-2.875s1.998-1.918 1.998-2.875v-2.875c0-.957-.999-1.916-1.997-1.916-.938 0-1.999-.959-1.999-1.918 0-.958-.999-1.784-1.998-1.784H7.049v.039c-.999 0-1.997.787-1.997 1.745v2.875l.998 8.627c0 2.875 2.997 5.713 5.995 5.713l8.99-.002c1.998 0 3.996-1.877 3.997-3.795-.001-.959-.084-2.232-1.999-2.232zM8.627 22.066l.003-.002c-.948-.91-1.581-2.104-1.581-3.277v-.035l-.008-.07-.99-8.558v-2.12l.138.198.003-.002c.243-.156.487-.312.718-.422.11-.053.221-.098.335-.128.107-.029.218-.045.333-.044a.72.72 0 0 1 .315.066c.097.05.19.139.269.288l-.001.001c.093.178.164.437.238.881.077.463.156 1.128.266 2.104l.246 2.261c.184 1.697.39 3.603.554 4.966.125 1.043.23 1.807.335 2.385.107.59.217.996.348 1.313.139.332.304.568.481.738.185.178.382.283.578.355h.001c.145.051.276.08.398.107.155.035.291.066.345.117.064.063.084.33.09.506-1.224.001-2.467-.721-3.414-1.628zm14.491.362h-3.171c-.5 0-.834 0-1.085.021-.293.025-.463.279-.591.4-.188.182-.229.293-.237.578v.066h-5.493c-.009-.285-.049-.463-.237-.645-.153-.146-.354-.191-.584-.242a3.37 3.37 0 0 1-.338-.09h.001a1.126 1.126 0 0 1-.401-.246 1.676 1.676 0 0 1-.371-.578c-.118-.283-.218-.658-.318-1.215a41.205 41.205 0 0 1-.331-2.357c-.17-1.414-.373-3.292-.554-4.962-.092-.848-.178-1.644-.247-2.263a44.545 44.545 0 0 0-.27-2.128c-.083-.5-.168-.799-.282-1.02h-.003c-.13-.249-.298-.403-.479-.496s-.369-.154-.545-.156c-.165-.001-.321.055-.471.095H7.11a2.39 2.39 0 0 0-.422.161 6.042 6.042 0 0 0-.637.365v-.431c0-.215.047-.302.245-.492.199-.19.529-.236.753-.236h1.998c.227 0 .471-.104.667.084v.004c.199.191.332.426.332.641 0 .738.378 1.453.927 1.979.56.537 1.326.896 2.071.896.226 0 .47.127.666.315v.004c.199.19.332.426.332.64h.004v2.875h-.004c0 .361-.23.956-.565 1.438l-.004.004c-.188.27-.359.477-.43.477-1.998 0-1.998 1.275-1.998 3.824v.008c0 1.406.608 2.139 1.423 2.531.352 0 1.465.152 2.074.152v-.004h.163c1.415.006 3.333.203 3.333-1.721 0-.229.125-.469.32-.656l.004-.004c.187-.18.429-.537.675-.537v-.002l3.996-.002c.568 0 .816.314.897.426v.004c.098.135.105.449.106.771 0 .673-.365 1.177-.918 1.724z" fill="#666"/></svg>