<svg xmlns="http://www.w3.org/2000/svg" width="30" height="30" viewBox="0 0 30 30"><path d="M11.509 13.25c1.362-.122 2.332-2.062 2.163-4.333-.168-2.271-1.409-4.014-2.772-3.893S8.567 7.085 8.736 9.358c.168 2.27 1.41 4.014 2.773 3.892zm-.61-7.034c1.074-.349 1.624 2.396 1.642 3.059.021.724-.208 2.495-1.022 2.779-.945.324-1.539-1.995-1.616-2.595-.101-.8.065-2.939.996-3.243zm14.148 6.049c-1.103-.624-2.688.367-3.545 2.215-.855 1.846-.655 3.849.444 4.473 1.101.622 2.688-.368 3.544-2.218.856-1.846.656-3.847-.443-4.47zm-.595 3.97c-.281.607-1.036 1.703-1.76 1.73-.934.033-.446-2.248-.288-2.666.268-.698 1.102-2.053 1.922-2.047 1.005.005.32 2.564.126 2.983zm-6.876-.219c-2.337-1.996-4.378-1.879-6.041-.891-1.083.644-2.005 1.656-2.745 2.696-1.116 1.568-2.933 3.982-1.358 5.764.661.747 1.599.827 2.243.771.886-.077.926-.37 1.693-.607 1.881-.583 3.974.532 5.768 1.036 5.471 1.537 3.295-6.33.44-8.769zm-7.329 6.954c.637-1.275 1.3-2.453 2.133-2.996.462-.301.988-.41 1.505-.35a2.702 2.702 0 0 1 1.502.713c.449.414.813.997 1.133 1.664.235.491.448 1.028.654 1.579-2.408-.684-4.296-1.895-6.927-.61zm7.867.868l-.258-.069c-.258-.701-.521-1.396-.822-2.025-.351-.729-.754-1.373-1.263-1.842a3.266 3.266 0 0 0-1.822-.861 2.816 2.816 0 0 0-1.877.44c-1.065.694-1.827 2.181-2.574 3.707-.365.01-.834-.067-1.187-.44-1.004-1.063.739-3.312 1.415-4.257.631-.882 1.448-1.812 2.397-2.343 1.266-.707 2.817-.761 4.616.694 1.604 1.295 4.288 6.666 1.375 6.996zm1.041-18.747c-1.313-.426-2.847 1.039-3.422 3.273-.576 2.236.02 4.392 1.335 4.817 1.314.426 2.846-1.041 3.422-3.278.577-2.232-.02-4.387-1.335-4.812zm.309 4.148c-.162.849-1.147 3.223-2.092 2.808-1.019-.453-.71-2.962-.364-3.912.218-.603.915-1.915 1.656-1.942.999-.041.923 2.402.8 3.046zM7.53 12.615c-.506-1.917-1.881-3.184-3.072-2.831-1.191.354-1.748 2.195-1.24 4.11.505 1.917 1.882 3.186 3.073 2.833 1.188-.355 1.746-2.194 1.239-4.112zm-1.079 2.297c-.225.744-.584.927-1.177.39-.89-.806-1.325-2.554-.979-3.703.226-.746.591-.924 1.181-.389.893.811 1.323 2.547.975 3.702z" fill="#666"/></svg>