<svg xmlns="http://www.w3.org/2000/svg" width="20" height="20" viewBox="0 0 20 20"><path fill="#666" d="M17.982 3.479h-.998l-.332-.337H14.99l-.333.337H12.66V2.338l-.998-.839H8.004l-.998.839V3.48H5.342l-.332-.337H3.347l-.333.336h-.998C.923 3.479.02 4.222.02 5.33v10.169c0 1.106.899 1.991 1.996 1.991h.75a1.5 1.5 0 0 0 1.412 1.011A1.5 1.5 0 0 0 5.59 17.49h8.82c.206.589.76 1.011 1.412 1.011s1.205-.422 1.412-1.011h.75a1.99 1.99 0 0 0 1.996-1.991V5.33c-.001-1.111-.905-1.851-1.998-1.851zm-2.992.978l.332-.475h.998l.334.475v2.39l-.832.842-.832-.842v-2.39zM8.004 2.81l.333-.337h2.994l.333.337v.67h-3.66v-.67zM3.347 4.457l.333-.475h.998l.332.475v2.39l-.832.841-.831-.841v-2.39zm.831 13.033c-.655 0-.661-.887 0-.887.662.001.658.887 0 .887zm1.412-.886a1.5 1.5 0 0 0-1.412-1.012 1.5 1.5 0 0 0-1.412 1.012h-.692c.225-.965 1.082-1.686 2.104-1.686s1.879.721 2.104 1.686H5.59zm10.23.886c-.655 0-.66-.887 0-.887.657.001.662.887 0 .887zm1.412-.886a1.5 1.5 0 0 0-1.412-1.012 1.5 1.5 0 0 0-1.411 1.012h-.692a2.17 2.17 0 0 1 2.104-1.686 2.17 2.17 0 0 1 2.104 1.686h-.693zm1.026-.106c-.246-1.135-1.244-1.916-2.438-1.916-1.206 0-2.213.734-2.444 1.889H6.624c-.231-1.154-1.238-1.889-2.445-1.889-1.193 0-2.19.781-2.436 1.915a1.06 1.06 0 0 1-.728-.998L1.013 5.33c0-.549.629-.873 1.17-.873h.831v2.558l1.164 1.18 1.191-1.18V4.457h9.258v2.558l1.193 1.18 1.166-1.18V4.457h.83c.541 0 1.203.461 1.203 1.012v10.03c.002.448-.337.874-.761.999z"/></svg>