<svg xmlns="http://www.w3.org/2000/svg" xmlns:xlink="http://www.w3.org/1999/xlink" preserveAspectRatio="xMidYMid" width="30" height="30" viewBox="0 0 30 30">
  <defs>
    <style>
      .cls-1 {
        fill: #333;
        fill-rule: evenodd;
      }
    </style>
  </defs>
  <path d="M0.504,20.009 C0.504,18.544 0.454,17.172 1.956,16.385 C3.400,15.629 5.341,15.805 6.879,15.381 C7.019,15.343 7.440,15.209 7.488,15.046 C7.580,14.731 6.737,13.946 6.521,13.735 L6.260,13.479 C5.181,14.393 4.072,14.646 2.572,14.540 C0.431,14.390 -0.004,13.451 -0.004,11.441 C-0.004,11.163 0.224,10.937 0.504,10.937 C0.850,10.937 1.196,10.937 1.415,9.465 C1.837,6.611 1.847,3.459 4.436,1.520 C5.798,0.500 7.819,-0.010 9.827,-0.010 C11.835,-0.010 13.856,0.500 15.218,1.520 C17.832,3.478 17.790,6.601 18.294,9.451 C18.559,10.937 19.024,10.937 19.489,10.937 C19.769,10.937 19.997,11.163 19.997,11.441 C19.997,13.522 19.455,14.397 17.421,14.540 C15.892,14.648 14.775,14.385 13.678,13.432 L13.421,13.713 C13.188,13.966 12.476,14.694 12.550,15.038 C12.577,15.160 12.751,15.277 13.118,15.383 C14.568,15.805 16.399,15.634 17.767,16.356 C19.149,17.085 19.148,18.266 19.148,19.594 L19.149,19.673 L18.132,19.673 C18.154,18.807 18.180,17.711 17.290,17.241 C16.166,16.649 14.240,16.730 12.915,16.371 L10.355,18.396 L10.166,18.547 L9.977,18.396 L7.328,16.296 C7.271,16.315 7.211,16.333 7.149,16.350 C5.742,16.737 3.641,16.639 2.429,17.275 C1.472,17.776 1.498,19.080 1.521,20.009 L0.504,20.009 L0.504,20.009 ZM15.590,6.569 C15.695,6.591 15.800,6.612 15.905,6.633 C16.065,8.034 15.901,9.484 15.389,10.802 C15.099,11.549 14.721,12.151 14.331,12.659 C15.223,13.438 16.097,13.624 17.350,13.536 C18.571,13.449 18.936,13.170 18.975,11.928 C18.270,11.858 17.627,11.496 17.293,9.624 C16.845,7.095 16.885,4.029 14.606,2.323 C13.427,1.440 11.633,0.998 9.827,0.998 C8.022,0.998 6.227,1.440 5.048,2.323 C2.786,4.016 2.791,7.085 2.419,9.610 C2.149,11.431 1.613,11.832 1.018,11.920 C1.056,13.156 1.443,13.452 2.643,13.536 C3.850,13.621 4.705,13.451 5.564,12.742 C5.113,12.221 4.671,11.599 4.337,10.817 C3.390,8.598 3.431,5.523 4.908,3.538 C4.977,3.508 5.046,3.478 5.115,3.447 C6.514,4.501 7.906,5.542 9.613,6.052 C11.462,6.605 13.667,6.569 15.590,6.569 L15.590,6.569 ZM9.051,11.038 L8.571,11.511 C8.995,11.932 9.366,12.225 9.996,12.225 C10.631,12.225 10.999,11.931 11.423,11.511 L10.943,11.036 C10.658,11.319 10.428,11.553 9.996,11.553 C9.565,11.553 9.344,11.328 9.051,11.038 L9.051,11.038 ZM12.207,7.591 C11.836,7.591 11.535,7.889 11.535,8.257 C11.535,8.624 11.836,8.921 12.207,8.921 C12.577,8.921 12.878,8.624 12.878,8.257 C12.878,7.889 12.577,7.591 12.207,7.591 L12.207,7.591 ZM7.793,7.578 C7.419,7.578 7.115,7.879 7.115,8.250 C7.115,8.621 7.419,8.921 7.793,8.921 C8.168,8.921 8.471,8.621 8.471,8.250 C8.471,7.879 8.168,7.578 7.793,7.578 L7.793,7.578 ZM14.936,7.242 C13.111,7.240 11.134,7.207 9.420,6.695 C7.923,6.248 6.681,5.438 5.458,4.540 C4.469,6.241 4.525,8.679 5.271,10.428 C5.766,11.587 6.580,12.382 7.232,13.019 C7.690,13.467 8.280,14.020 8.456,14.648 C8.593,15.140 8.453,15.591 8.057,15.918 C8.019,15.949 7.979,15.979 7.936,16.008 L10.166,17.776 L12.261,16.119 C11.858,15.897 11.634,15.602 11.558,15.251 C11.374,14.409 12.144,13.611 12.675,13.036 C13.261,12.400 13.993,11.606 14.444,10.443 C14.831,9.446 14.991,8.320 14.936,7.242 Z" transform="translate(5 5)" class="cls-1"/>
</svg>
