<svg xmlns="http://www.w3.org/2000/svg" width="30" height="30" viewBox="0 0 30 30"><path d="M11.021 15.966h8.029v-.974l-8.029-.033v1.007zm0 1.99h7.995v-1.004h-7.995v1.004zm9.016-8.004V4.775c0-1.375-.363-1.748-1.521-1.748s-1.476.372-1.476 1.748v5.177h-3.996V4.773c0-1.374-.3-1.746-1.427-1.746-1.377 0-1.586.372-1.586 1.748v5.177l-3.006.002v2.382c-.001.757.243 1.374 1.001 1.374l.001 4.126c-.188 2.261 1.636 4.123 3.904 4.123h2.122v5.014h1.907v-5.014h1.647c2.269 0 4.402-1.858 4.401-4.123l-.001-4.126c.758 0 .99-.617.99-1.373L23 9.954l-2.963-.002zm-1.995-4.699c0-1.24.978-.808.978.001v4.698h-.978V5.253zm-7.021 0c0-1.24 1.036-.808 1.036-.001v4.7h-1.036V5.253zm10.011 12.584c0 .756-.978 1.442-1.475 1.938-.5.498-1.354.81-1.949.81h-1.377c-.76 0-1.264.615-1.264 1.374 0-.759-.9-1.374-1.66-1.374-.512 0-1.106.032-1.608-.009a2.961 2.961 0 0 1-1.81-.826c-.441-.434-.892-1.005-.892-1.626 0-1.47.007-2.716.006-4.188H21.03c.001 1.377.003 2.526.002 3.901zm-.144-4.887H9.226c-.439-.304-1.094-.708-1.196-.811v-.006h-.007l-.033-1.165h14.024s.041.806.066 1.199c.001 0-.457.271-1.192.783z" fill="#666"/></svg>