<svg xmlns="http://www.w3.org/2000/svg" width="30" height="30" viewBox="0 0 30 30"><path d="M18.567 7.893c.828 0 1.499-.684 1.499-1.525 0-.843-.671-1.525-1.499-1.525-.827 0-1.498.683-1.498 1.525 0 .841.671 1.525 1.498 1.525zm4.829.244V7.121H21.06c-.086 1.324-1.169 2.372-2.493 2.372-1.322 0-2.405-1.048-2.492-2.372H5.667v1.017l8.35 7.867v7.119l-3.997 2.035h9.005l-1.211-.617-2.786-1.418v-7.119l8.368-7.868z" fill="#666"/><path fill="#fff" d="M7.147 8.11l.772.758 6.228 5.868h.754l6.243-5.868.769-.758z"/></svg>