<svg xmlns="http://www.w3.org/2000/svg" width="30" height="30" viewBox="0 0 30 30"><path d="M28.914 17.97c-.115-.229-.345-.229-.459-.688-.115-.459-.115-1.375-.115-2.291 0-.688 0-1.374-.573-1.833-.574-.458-1.722-.688-2.639-.802-.918-.115-1.606-.115-2.983-.802-1.377-.688-3.441-2.063-5.048-2.75s-2.754-.631-4.59-.631H4.559c-.688 0-1.377-.213-1.722.36-.344.572-.344 1.875-.458 2.447-.115.573-.345.573-.46.688-.114.114-.114.344-.114.572 0 .229 0 .459-.115.688-.114.229-.447.458-.563 1.489-.114 1.031-.114 2.864 0 3.895.115 1.031.236 1.59.466 1.819h2.364c.306 1.186 1.384 1.731 2.667 1.731 1.282 0 2.361-.546 2.667-1.731h11.563c.306 1.186 1.385 1.731 2.667 1.731 1.285 0 2.365-.55 2.669-1.739 1.276-.011 1.641-.037 1.92-.107v.124c.459-.115.688-.797.804-1.142.114-.342.114-.8 0-1.028zM16.82 10.216c.629.269 1.124.536 1.882.972 0 .331.003.664-.013.995-.032.682.048.934-.626.973-1.229.072-4.159.024-4.8.024-.22-1.053-.485-2.815-.75-4.008 1.664 0 2.966.471 4.307 1.044zm-5.006-1.044l.016.081c.258 1.158.516 2.889.733 3.927H7.354c-.042-.951-.043-2.747-.043-3.989l4.503-.019zM3.18 12.427c.22-.226.427-.569.548-1.177.041-.202.07-.475.102-.77.038-.359.084-1.097.146-1.307l2.648-.002c0 1.234.001 3.04.043 4.008H3.132c.035-.177.045-.593.048-.752zm3.444 8.063a1.376 1.376 0 1 1-.002-2.752 1.376 1.376 0 0 1 .002 2.752zm16.897-.001a1.375 1.375 0 1 1 0-2.749 1.376 1.376 0 0 1 0 2.749zm2.667-2.065a2.756 2.756 0 0 0-2.666-2.059c-1.282 0-2.361.6-2.667 1.785H9.291c-.306-1.186-1.385-1.785-2.667-1.785-1.283 0-2.361.63-2.667 1.815H2.42c-.185-1.137-.162-2.47-.035-3.612.046-.412.089-.082.281-.421h4.043c.009.115.021.224.031.325.064.54.167.356.317.592.454.723 1.379.468 2.052.804.358.18.657.554.813.917.144.334.144.305.144.615h.688c0-.378 0-.416-.2-.884-.22-.511-.635-1.009-1.138-1.26-.437-.218-1.597-.268-1.778-.556-.094-.149-.163.126-.214-.307a6.85 6.85 0 0 1-.025-.247h5.306c.283 1.41.491 1.799.491 3.253h.688c0-1.453-.199-1.844-.48-3.253 1.423 0 5.262.066 5.299-.032l.031 1.505v1.78h.75v-5.815c.705.411 1.318.828 2.048 1.192 2.166 1.08 2.846.671 4.685 1.171.312.084.573.18.695.277a.383.383 0 0 1 .021.077h-1.69c-.573 0-.803 0-.918.114-.114.115-.114.344 0 .573.115.228.345.458.918.572.43.086 1.052.107 1.724.112.007.753.034 1.455.155 1.939.09.358.211.6.342.781-.422.031-.855.03-1.276.032z" fill="#666"/></svg>