<svg xmlns="http://www.w3.org/2000/svg" width="30" height="30" viewBox="0 0 30 30"><path d="M24.805 14.935c-.858-.595-2.003-.475-3.242-.475l-3.909.001c-1.335 0-2.67.004-3.338-.392-.667-.396-.667-1.314.191-1.711s2.574-.396 3.433-.99c.857-.595.857-1.783.285-2.378-.571-.595-1.716-.595-4.194-.297-2.479.297-6.294.892-8.2 1.585-1.907.694-1.907 1.486-1.717 2.18.191.694.572 1.288.763 1.883.191.595.191 1.188.191 1.783s0 1.188.572 2.081c.571.892 1.716 2.08 2.669 2.675.954.595 1.717.595 3.814.595h7.628c2.098 0 2.86.188 3.813-.407.954-.595 2.098-1.971 2.384-3.16.286-1.189-.286-2.379-1.143-2.973zm-18.847-.966c-.114-.357-.25-.647-.389-.948a15.568 15.568 0 0 1-.406-1.044c.088-.151.378-.338 1.042-.579.768-.279 1.895-.546 3.119-.783a73.189 73.189 0 0 1 4.836-.742c1.184-.142 2.036-.214 2.624-.181.361.021.559.063.632.14l.015.015c.038.06.056.145.049.237a.396.396 0 0 1-.174.296l.001.002c-.305.209-.958.331-1.575.446-.564.104-1.108.207-1.576.402a2.388 2.388 0 0 0-1.215 1.032 1.958 1.958 0 0 0-.241.851 1.9 1.9 0 0 0 .121.769c.01.032.022.063.036.096.171.398.474.75.893.999.499.297 1.158.344 1.896.406.639.055 1.324.091 2.009.091v-.005h3.909v.005c.597 0 1.171-.036 1.616.023.383.053.723.243.991.429l.002-.003c.249.173.458.177.584.48l.017.046.006.014h-9.127c-1.041 0-1.656 0-2.042-.047-.326-.04-.476-.295-.617-.442-.17-.177-.354-.025-.536-.31h-.001c-.199-.311-.399-.622-.606-.838-.466-.483-.881-.483-1.919-.483H6.061a5.673 5.673 0 0 0-.103-.374zM24.84 17.62c-.087.363-.314.751-.603 1.11-.376.469-.841 1.091-1.258 1.352-.678.422-1.358.387-3.229.387h-7.628c-1.01 0-1.698.005-2.197-.061-.406-.053-.707-.124-1.031-.326-.383-.238-.818-.828-1.228-1.237L6.59 17.546c-.38-.593-.38-1.007-.38-1.422 0-.318 0-.636-.028-.989-.006-.066-.012-.133-.02-.199H9.93c.869 0 1.218 0 1.515.309.173.181.355.464.537.747h-.002c.198.31.397.619.608.838.239.249.473.554.956.612.424.052 1.049.052 2.106.052h9.229c-.001.101-.015.024-.039.126z" fill="#666"/></svg>