<svg xmlns="http://www.w3.org/2000/svg" width="30" height="30" viewBox="0 0 30 30"><path d="M15.044 20.367a1.07 1.07 0 0 0-1.071 1.069 1.071 1.071 0 0 0 2.142 0c0-.589-.481-1.069-1.071-1.069zm1.639-2.882a4.281 4.281 0 0 0-3.28 0h.001a4.305 4.305 0 0 0-1.391.926.534.534 0 1 0 .757.756 3.19 3.19 0 0 1 1.041-.695h.002c.384-.16.802-.244 1.229-.244s.846.084 1.23.244h.002c.382.157.737.393 1.04.695a.534.534 0 1 0 .758-.756 4.297 4.297 0 0 0-1.389-.926zm1.227-2.964a7.505 7.505 0 0 0-5.734.001 7.505 7.505 0 0 0-2.435 1.622.534.534 0 1 0 .757.756 6.43 6.43 0 0 1 2.083-1.393c.771-.318 1.606-.486 2.462-.486s1.691.168 2.462.486a6.419 6.419 0 0 1 2.086 1.392.533.533 0 1 0 .753-.756 7.49 7.49 0 0 0-2.434-1.622zm1.231-2.963a10.724 10.724 0 0 0-4.098-.816 10.722 10.722 0 0 0-7.573 3.132.533.533 0 1 0 .753.756 9.664 9.664 0 0 1 3.128-2.088 9.664 9.664 0 0 1 3.691-.73c1.282 0 2.536.253 3.692.731a9.655 9.655 0 0 1 3.126 2.086.533.533 0 1 0 .757-.752 10.68 10.68 0 0 0-3.476-2.319zm5.748.047a13.913 13.913 0 0 0-4.519-3.013c-1.675-.693-3.483-1.099-5.327-1.099-1.843 0-3.651.405-5.326 1.099a13.897 13.897 0 0 0-4.519 3.013.533.533 0 1 0 .753.756 12.852 12.852 0 0 1 9.092-3.759 12.871 12.871 0 0 1 9.093 3.759.533.533 0 1 0 .753-.756z" fill-rule="evenodd" clip-rule="evenodd" fill="#666"/></svg>