<svg xmlns="http://www.w3.org/2000/svg" width="30" height="30" viewBox="0 0 30 30"><path fill-rule="evenodd" clip-rule="evenodd" fill="#0D0F0F" d="M15 5c5.6 0 10.1 4.5 10.1 10S20.6 25 15 25 4.9 20.5 4.9 15 9.4 5 15 5zm0 1c-5 0-9.1 4-9.1 9s4.1 9 9.1 9 9.1-4 9.1-9S20 6 15 6z"/><path fill-rule="evenodd" clip-rule="evenodd" fill="#0D0F0F" d="M15 7c4.2 0 7.7 3.2 8 7.3-1.3 0-2.9.1-4.1-.2-.8-.2-1.3-.6-2-.9-.8-.3-3.3-.3-4.1 0-.7.3-1.1.7-2 .9-1.2.3-2.6.2-3.9.2C7.3 10.2 10.8 7 15 7zm7.3 6.7c-.6-3.4-3.7-6-7.3-6-3.6 0-6.7 2.6-7.3 6 .9 0 2.1 0 3-.2.8-.2 1.2-.6 1.9-.9.9-.3 3.6-.3 4.6 0 .7.2 1.2.7 1.9.9.8.2 2 .2 3.2.2zm-11.1 2.4c.6.2 1.1.6 1.6 1 1.6 1.6 1.5 3.7 1.5 5.8-3.9-.4-7-3.4-7.3-7.3 1.4.1 2.9 0 4.2.5zm2.4 6.1c0-1.7-.1-3.3-1.3-4.6-.4-.4-.8-.7-1.4-.9-.9-.4-2.1-.4-3.2-.4.6 3 2.9 5.3 5.9 5.9zm3.5-5c.4-.4 1-.8 1.6-1 1.3-.5 2.9-.5 4.4-.5-.3 3.9-3.5 7-7.5 7.3 0-2.1-.1-4.2 1.5-5.8zm5.2-.9c-1.1 0-2.3 0-3.4.4-.5.2-1 .5-1.4.9-1.3 1.3-1.3 2.9-1.3 4.6 3.1-.5 5.5-2.8 6.1-5.9z"/></svg>