<svg xmlns="http://www.w3.org/2000/svg" width="30" height="30" viewBox="0 0 30 30"><path fill="#fff" d="M7.147 8.11l.772.758 6.228 5.868h.754l6.243-5.868.769-.758z"/><path d="M22.534 11.448c-.832 1.507-1.665 3.163-2.497 4.67h.998c0 .837 0 1.523-.166 2.109-.353 1.24-1.674 1.396-2.747 1.087-.583-.167-.596-.502-1.096-.836v-3.5c.833-.001 1.179-.001 1.762-.168.583-.168.916-1.019 1.249-1.353V11H16.54c0-.552-.044-.614.167-1.142.166-.419.499-.921.666-1.507.166-.586.166-1.256-.084-1.842a2.424 2.424 0 0 0-4.495 0c-.25.586-.25 1.256-.083 1.842.166.586.499 1.088.666 1.507.21.527.166.59.166 1.142h-3.496v2.457c.333.334.666 1.185 1.248 1.353.583.167.929.167 1.762.168v3.5c-.5.334-.513.669-1.096.836-1.073.309-2.395.153-2.747-1.087-.166-.586-.166-1.272-.166-2.109h.999c-.833-1.507-1.665-3.163-2.498-4.67-.832 1.507-1.665 3.163-2.497 4.67h.999c0 1.171 0 2.192.499 3.28.975 2.121 2.829 3.097 5.078 3.097 1.369 0 2.504 1.596 3.414 2.51.909-.914 2.044-2.51 3.413-2.51 2.249 0 4.104-.975 5.078-3.097.5-1.088.5-2.109.5-3.28h.999c-.833-1.507-1.665-3.163-2.498-4.67zm-9.478 10.694c-.517-.393-.612-.65-1.428-.65-.269 0-.634 0-.997-.052-1.38-.192-2.597-1.199-3.176-2.46-.405-.884-.406-1.798-.406-2.861v-1.154h-.304l.804-1.455.804 1.455h-.304v1.154c0 .904 0 1.66.205 2.384.514 1.804 2.371 2.239 3.98 1.777.463-.133.406-.354.821-.607v2.469zm.985-15.719c.581-.584 1.425-.579 2.005.004.424.425.526.983.394 1.549a1.496 1.496 0 0 1-2.795-.002c-.135-.57-.03-1.122.396-1.551zm1.837 4.601l.001.161-.001-.161h-1.672a8.862 8.862 0 0 0-.002.161v-.161h.002c.008-.683.064-1.495.021-1.538-.03-.075.011-.152-.027-.233.262.123.551.3.843.3.301 0 .576-.177.842-.299a4.87 4.87 0 0 0-.102.232c.052.027.09.845.095 1.538zm.148 7.992l-.01.336v3.223c-.323.31-.618.659-.976 1.015-.358-.355-.673-.705-.995-1.015v-3.223c.167-.112-.154-.226.011-.336v-4.023h1.97v4.023zm-3.204-5.043c-.61-.011-1.295-.663-1.777-1.093v-.872h7.993v1.022c-.482.43-1.167.932-1.777.942h-4.439zm10.212.991v1.154c0 1.063 0 1.978-.406 2.861-.803 1.749-2.292 2.512-4.173 2.512-.811 0-.942.259-1.462.653v-2.472c.414.252.391.474.855.606 1.61.462 3.468.026 3.98-1.777.205-.724.205-1.479.205-2.384v-1.154h-.303l.804-1.455.805 1.455h-.305z" fill="#666"/></svg>