<svg xmlns="http://www.w3.org/2000/svg" width="30" height="30" viewBox="0 0 30 30"><path d="M25.069 18.415h-.874l.189-.189-7.93-8.511-.487-3.121h-1.779l-.486 3.119-8.179 8.513.436.189h-.914v2.907h6.907l-.433 2.084h1.779l.433-2.084h2.693l.433 2.084h1.779l-.433-2.084h6.865l.001-2.907zm-9.991-6.221l.913 6.221h-1.827l.914-6.221zm-1.522-1.582l-.371 2.281-4.935 5.522H6.336l7.22-7.803zm-2.637 7.803H9.005l4.034-4.622-.371 2.281-1.749 2.341zm1.603-1.441l-.138 1.441h-.711l.849-1.441zm-6.505 3.431v-1.047h10.119l.145 1.047H6.017zm10.584-9.792l7.219 7.802h-1.915l-4.934-5.52-.37-2.282zm.516 3.181l4.033 4.621h-1.914l-1.749-2.339-.37-2.282zm.517 3.181l.848 1.44h-.71l-.138-1.44zm6.464 3.43H18.06l-.144-1.047h6.182v1.047z" fill="#666"/></svg>