<svg xmlns="http://www.w3.org/2000/svg" width="30" height="30" viewBox="0 0 30 30"><path d="M13.043 14.987v1.015h.97l-.004-1.015h-.966zm4.977 0h-1.015v1.015h.038v.999h1v-2h-.023v-.014zm-4.97-3.027l-.001-.004c-.565 0-1.024.464-1.024 1.037s.459 1.038 1.024 1.038 1.024-.465 1.024-1.038-.618-1.033-1.023-1.033zm1.966 3.819a1.272 1.272 0 0 1-.009.2l1.009.022v-1.015h-1.008c0 .001.014.494.008.793zm8.865 7.135c-.169-.639-.628-1.188-1.312-1.557l-.001.002c-.742-.4-1.857-.547-2.879-.681-.604-.079-1.175-.153-1.566-.271-.351-.104-.518-.219-.543-.338-.031-.146.077-.373.281-.648.244-.331.629-.712 1.022-1.104.479-.476.972-.966 1.313-1.46.549-.792.684-1.525.739-2.247.056-.002.111-.007.168-.016.307-.047.502-.194.699-.54.146-.259.036-.642.06-1.015.023-.371.108-.76-.005-1.035-.151-.366-.251-.551-.551-.644a.582.582 0 0 0-.079-.022c.17-.625.541-1.247.586-1.856.062-.854-.303-1.658-.846-2.359-.485-.628-1.294-1.145-2.191-1.509-.974-.397-2.067-.623-2.964-.623-1.293 0-2.159.447-2.863.813-.226.115-.433.223-.603.288-.347.133-.688.16-1.015.186-.356.028-.699.055-1.086.196a2.94 2.94 0 0 0-1.219.863c-.299.363-.747.811-.809 1.32-.099.801.43 1.696.815 2.61-.348.045-.584.207-.813.645-.153.293-.006.719-.019 1.134-.013.437-.127.889-.003 1.179.238.556.447.666.814.626.024.217.06.438.119.669.116.451.322.912.703 1.392.37.466.898.935 1.417 1.395.45.399.894.793 1.175 1.136.158.192.264.364.304.509a.256.256 0 0 1 .009.128.226.226 0 0 1-.075.099c-.101.085-.267.162-.507.229-.397.112-.99.187-1.622.267-1.092.138-2.293.289-3.086.715-1.413.759-1.413 2.224-1.413 3.608h1.051c0-1.089-.078-2.259.814-2.737.634-.341 1.743-.48 2.752-.607.644-.081 1.25-.158 1.726-.287 1.004.705 2.006 1.445 2.972 1.445.509 0 .983-.241 1.44-.529.402-.252.783-.573 1.161-.899.444.119 1.014.193 1.616.272.937.123 1.96.257 2.545.573v.001c.404.219.608.552.711.94.119.45.12 1.284.12 1.84h1.09c.001-.62.001-1.518-.152-2.096zM9.77 7.973c.226-.271.52-.47.805-.574.253-.093.537-.114.831-.138.394-.03.805-.063 1.284-.247.238-.092.46-.207.701-.331.61-.315 1.362-.704 2.423-.704.783 0 1.744.199 2.604.549.75.306 1.413.72 1.788 1.205.368.476.536 1.054.49 1.682-.017.229-.128.468-.175.713a30.972 30.972 0 0 1-1.842-.111 11.728 11.728 0 0 1-2.189-.4c-1.43-.422-2.808-1.228-4.185-2.033l-.007-.005-.006-.004-.319-.178-.258.261c-.454.461-.909.922-1.267 1.557a6.709 6.709 0 0 0-.453 1.025c-.053.147-.103.297-.151.447-.291-.714-.627-1.385-.562-1.91.037-.305.3-.58.488-.804zm6.715 13.806c-.37.233-.748.464-1.135.464-.697 0-1.5-.573-2.317-1.139.094-.054.177-.111.25-.173.197-.167.324-.36.387-.576a1.21 1.21 0 0 0-.005-.667c-.077-.283-.249-.577-.494-.876-.334-.405-.804-.822-1.281-1.247-.484-.43-.979-.869-1.299-1.271a2.706 2.706 0 0 1-.521-1.025c-.089-.343-.111-.701-.134-1.059l-.039-.617-.582.177c-.169.051-.339.102-.354.065-.069-.16-.202-.454-.192-.762.008-.278.151-.546.233-.702.087-.167.403-.133.722-.099l.879.149-.372-.839-.046-.104.392.123c.105-.353.213-.703.329-1.029.112-.311.236-.607.385-.871.229-.406.532-.751.851-1.081 1.323.771 2.654 1.519 4.077 1.938.775.229 1.568.357 2.369.436.564.055 1.131.085 1.698.107-.049.179-.101.359-.151.54l-.175.621.641.005c.159.001.319.002.422.034a.14.14 0 0 1 .09.082c.055.135.147.361.133.597-.015.238-.136.463-.205.586a.106.106 0 0 1-.08.055c-.098.016-.251-.008-.404-.031l-.528-.081-.028.543c-.039.746-.078 1.493-.596 2.241-.294.425-.754.881-1.199 1.324-.417.414-.824.818-1.117 1.215-.372.503-.553.992-.456 1.446.075.351.297.645.698.862a7.517 7.517 0 0 1-.846.639zm1.605-8.801c0-.566-.453-1.024-1.012-1.024s-1.012.458-1.012 1.024.453 1.025 1.012 1.025 1.012-.459 1.012-1.025z" fill-rule="evenodd" clip-rule="evenodd" fill="#666"/></svg>