<svg xmlns="http://www.w3.org/2000/svg" width="30" height="30" viewBox="0 0 30 30"><style>.st0{fill-rule:evenodd;clip-rule:evenodd;fill:#666}.st1{display:none}.st2{display:inline;fill-rule:evenodd;clip-rule:evenodd;fill:#666}</style><path class="st0" d="M14.9 6.6l-7.6 3.8 7.6 3.5 7.6-3.5-7.6-3.8zm-7.8 4.3l7.8 3.6v9.6l-7.8-3.9v-9.3zm8.3 12.9v-9.6l7.2-3.4v9.3l-7.2 3.7zm-.5-18.5l8.9 4.4v11.1l-8.9 4.4L6 20.9V9.8l8.9-4.5zm3.3 10.4v2.1l2.2-1.1v-2.1l-2.2 1.1zm-.5-.4c1.1-.6 2.2-1.1 3.3-1.7v3.3c-1.1.6-2.2 1.1-3.3 1.7v-3.3z"/><path class="st1 st2" d="M14.9 6.6l-7.6 3.8 7.6 3.5 7.6-3.5-7.6-3.8zm-7.8 4.3l7.8 3.6v9.6l-7.8-3.9v-9.3zm8.3 12.9v-9.6l7.2-3.4v9.3l-7.2 3.7zm-.5-18.5l8.9 4.4v11.1l-8.9 4.4L6 20.9V9.8l8.9-4.5zm3.3 10.4v2.1l2.2-1.1v-2.1l-2.2 1.1zm-.5-.4c1.1-.6 2.2-1.1 3.3-1.7v3.3c-1.1.6-2.2 1.1-3.3 1.7v-3.3z" id="Layer_2"/></svg>