<svg xmlns="http://www.w3.org/2000/svg" width="20" height="20" viewBox="0 0 20 20"><path fill="#666" d="M19.71 19.055c-.938-.438-1.881-.875-2.715-1.267l-.765-.358c.358-.408.703-.826.942-1.348.134-.294.229-.615.308-.951.076-.328.133-.658.188-.986a.329.329 0 0 0-.271-.377.331.331 0 0 0-.381.271c-.056.325-.111.653-.177.948a4.298 4.298 0 0 1-.266.824c-.228.496-.591.91-.956 1.322l-.418-.201c.379-.695.751-1.396.945-2.193.203-.834.203-1.725.203-2.615 0-.182-.148-.327-.332-.327s-.332.146-.332.327c0 .857 0 1.714-.184 2.463-.176.721-.532 1.389-.895 2.053a15.693 15.693 0 0 1-.523-.279.58.58 0 0 0 .063-.103c.168-.308.338-.614.48-.963.154-.377.284-.803.359-1.326.08-.557.1-1.227.011-1.922a6.188 6.188 0 0 0-.491-1.763c-.283-.62-.691-1.19-1.156-1.733-.462-.537-.963-1.032-1.464-1.525a.5.5 0 0 0-.702 0 .478.478 0 0 0-.146.347h-.001v1.02c-2.131-1.917-4.152-3.77-5.201-5.065-.563-.696-.843-1.223-.978-1.664-.128-.418-.129-.796-.129-1.173A.495.495 0 0 0 4.228 0C2.742 0 1.254.001.457 1.707c-.401.856-.584 2.163-.347 3.7.19 1.238.655 2.641 1.502 4.092.876 1.504 2.162 3.058 3.513 4.401 1.504 1.496 3.101 2.742 4.319 3.381l.027.014c1.253.65 2.161.691 2.892.426a3.06 3.06 0 0 0 1.015-.633l.024.016c.145.086.341.195.623.342-.207.277-.453.517-.795.658-.602.246-1.565.246-2.529.246-.184 0-.332.146-.332.328s.148.327.332.327c1.029 0 2.057 0 2.783-.299.529-.218.865-.567 1.141-.961.529.26 1.201.579 1.945.929.834.393 1.777.829 2.716 1.266.248.117.544.012.661-.233s.011-.538-.237-.652zM11.1 9.781c.199.691.391 1.394.488 2.219.055.458.083.953.096 1.466.008.339.012.728.012 1.13-.563-.469-1.118-.934-1.657-1.395-.002-.919-.019-1.852-.229-2.938a19.48 19.48 0 0 0-.575-2.165c.607.553 1.235 1.118 1.865 1.683zm-5.271 3.431c-1.298-1.292-2.528-2.775-3.357-4.198-.777-1.333-1.203-2.618-1.378-3.752-.206-1.339-.062-2.445.266-3.145.455-.975 1.385-1.111 2.378-1.131.016.291.057.601.168.962.168.548.499 1.183 1.153 1.99.73.901 1.872 2.028 3.184 3.247.374 1.119.727 2.22.917 3.198.154.805.198 1.534.21 2.243-1.646-1.433-3.09-2.804-4.08-4.035-1.737-2.164-2.068-3.919-2.39-5.67a.332.332 0 0 0-.331-.299.33.33 0 0 0-.333.327v.024l.007.035c.339 1.843.679 3.686 2.527 5.989 1.492 1.854 3.966 3.998 6.617 6.192-.25.115-.537.213-1.018.213-.599 0-1.491-.143-2.405-.291a24.793 24.793 0 0 1-2.135-1.899zm6.192 3.589c-.483.176-1.127.125-2.086-.373l-.023-.014a9.341 9.341 0 0 1-.783-.463c.469.063.896.105 1.241.105.737 0 1.106-.184 1.476-.363a.33.33 0 0 0 .084-.06l.827.683c-.228.213-.469.389-.736.485zm1.978-2.97c-.063.433-.17.784-.298 1.097a7.769 7.769 0 0 1-.418.842l-.068.076-.859-.707a.331.331 0 0 0 .006-.064c0-.521 0-1.047-.016-1.627a17.098 17.098 0 0 0-.099-1.522 13.071 13.071 0 0 0-.424-2.023.487.487 0 0 0 .206-.397v-.93c.195.204.384.407.558.609.413.48.767.977 1.009 1.504.219.477.35.986.413 1.48a6.33 6.33 0 0 1-.01 1.662z"/></svg>