<svg xmlns="http://www.w3.org/2000/svg" width="30" height="30" viewBox="0 0 103 103" shape-rendering="geometricPrecision" text-rendering="geometricPrecision" image-rendering="optimizeQuality" fill-rule="evenodd" clip-rule="evenodd"><defs><style>.fil1{fill:#666}</style></defs><path class="fil1" d="M66 19c2-3 6-6 10-6s8 3 10 6c3 3 3 7 2 12 0 6-1 13-1 21 0 7 1 14 1 20 1 5 1 9-2 12-2 3-6 6-10 6s-8-3-10-6-2-7-2-12c0-6 1-13 1-20 0-8-1-15-1-21 0-5 0-9 2-12zm-50 1c1-2 3-3 4-4 2-1 3-2 4-2 1-1 2-1 2-1 1 0 1 0 2 1 1 0 3 1 4 2 2 1 3 2 4 4 1 3 1 6 0 13s-2 17-2 26v1h1c1 0 2 1 2 2v7h-3c1 5 1 10 2 13 0 5 0 7-1 7 0 1-1 1-4 1h-9c-3 0-4 0-5-1-1 0-1-2 0-7 0-3 1-8 1-13h-2v-7c0-1 0-2 1-2h1v-1c0-9-1-19-2-26V20zm6 39h2v4h-2c0 7-1 14-1 18l-1 2v3h12v-5c-1-4-1-11-2-18h-2v-4h2c1-7 1-16 2-22v-5c1-3 1-5 1-7s0-3-1-3v-2c-1 0-1-1-2-1-1-1-1-1-2-1 0-1-1-1-1-1h-1-1l-1 1s-1 0-2 1l-1 1c-1 1-1 1-1 2v15c1 6 2 15 2 22zm4-10c1 0 2 1 2 2v5h-4v-5c0-1 1-2 2-2zm14-29c1-2 2-3 4-4 1-1 3-2 3-2 1-1 2-1 3-1 0 0 1 0 2 1 1 0 2 1 3 2 2 1 3 2 4 4 1 3 1 6 1 13-1 7-2 17-2 26v1h1c1 0 1 1 1 2v7h-2c0 5 1 10 1 13 1 5 1 7 0 7-1 1-2 1-5 1h-9c-3 0-4 0-5-1v-7c1-3 1-8 1-13h-2v-7c0-1 1-2 2-2h1v-1c0-9-2-19-2-26-1-7-1-10 0-13zm5 39h3v4h-3c0 7 0 14-1 18v5h12c0-1-1-2-1-3v-2c0-4-1-11-1-18h-2v-4h2c0-7 1-16 1-22 1-2 1-4 1-5v-7-3c0-1-1-1-1-2-1 0-1-1-2-1-1-1-1-1-2-1 0-1 0-1-1-1h-1s-1 0-1 1c-1 0-1 0-2 1-1 0-1 1-2 1 0 1 0 1-1 2v10c1 1 1 3 1 5 1 6 1 15 1 22zm5-10c1 0 2 1 2 2v5h-4v-5c0-1 1-2 2-2zm31-9c0 2-2 4-4 4h-6v-7h6c2 0 4 1 4 3zm0 24c0 2-2 4-4 4h-6v-8h6c2 0 4 2 4 4zm-9-46l-3 3c-1 1-1 2-1 3v11c0 5 1 11 1 17 0 5-1 11-1 16v11c0 1 0 2 1 3l3 3c1 1 3 1 4 1 2 0 3 0 4-1 2-1 3-2 3-3 1-1 1-2 2-3v-7c-1-1-1-3-1-4V52 35c0-1 0-3 1-4v-7c-1-1-1-2-2-3 0-1-1-2-3-3-1-1-2-1-4-1-1 0-3 0-4 1z" id="Layer_x0020_1"/></svg>