<svg xmlns="http://www.w3.org/2000/svg" width="30" height="30" viewBox="0 0 30 30"><path d="M20.451 14c-.814 0-1.476.671-1.476 1.499s.661 1.5 1.476 1.5 1.475-.672 1.475-1.5S21.266 14 20.451 14zm3.442-5.999H6.19c-.541 0-1.155.449-1.155 1v12.998l2.14-2.001 1.967 2 1.967-2 1.967 2 1.967-2 1.967 2 1.967-2 1.967 2 1.968-2 2.138 2.001V9.001c-.002-.551-.615-1-1.157-1zm-.289 11.295a.968.968 0 0 0-1.386-.005l-.002.003-.002-.003-1.272 1.294-1.271-1.294a.973.973 0 0 0-1.391 0l-1.271 1.294-1.271-1.294a.973.973 0 0 0-1.391 0l-1.271 1.294-1.271-1.294a.973.973 0 0 0-1.391 0l-1.271 1.294-1.273-1.294c-.384-.39-1.083-.39-1.467 0l-.375.338.019-10.601 17.977-.008.019 10.568-.439-.292zM7.043 11.004h15v-1h-15v1zm0 2h15v-1h-15v1zm0 2h10v-1h-10v1z" fill-rule="evenodd" clip-rule="evenodd" fill="#666"/></svg>