<svg xmlns="http://www.w3.org/2000/svg" width="30" height="30" viewBox="0 0 30 30"><path d="M22.795 5.003H7.337c-1.214 0-2.295 1.382-2.295 2.594v10.361c0 1.212 1.082 2.029 2.296 2.029h6.676v5.01h2.026v-5.01h6.756c1.214 0 2.252-.818 2.252-2.029V7.597c0-1.211-1.038-2.594-2.253-2.594zm1.235 11.825c0 .603-.631 1.171-1.234 1.171H7.338c-.604 0-1.278-.567-1.278-1.171l-.001-9.441c0-.608.668-1.361 1.278-1.361h15.458c.605 0 1.235.759 1.235 1.361v9.441zm-16.979.19h15.963V7.004H7.051v10.014zm1.012-8.995h13.964v7.957H8.063V8.023z" fill="#666"/></svg>