<svg xmlns="http://www.w3.org/2000/svg" width="30" height="30" viewBox="0 0 30 30"><path d="M23.035 14.485v.028h-3.937c-.25-.332-.416-.374-.75-1.12-.333-.747-.833-1.908-1.166-2.655-.334-.746-.501-1.078-.751-1.41-.25-.331-.583-.664-.916-.829-.334-.166-.667-.166-1.084-.166s-.917 0-1.084.166c-.166.165 0 .498.433 1.415.431.916 1.128 2.419 1.55 3.328.422.91.569 1.228.471 1.555l-.002.007h-.323a1.97 1.97 0 0 1-1.897-1.361l-1.764-5.265a.964.964 0 0 0-.527-.589.973.973 0 0 0-.791-.021c-.417.166-.823.355-1.213.568-.203.11-.056.57-.25.694-2.129 1.356-3.999 3.135-3.999 5.973-.001 3.982 3.804 7.703 8.001 7.703l7.5-.001c1.999 0 3.53-.917 3.531-2.908V18.42l.97-1.123.001-.503c-.001-.994-1.003-2.309-2.003-2.309zm-7.57-3.321c-.198-.427-.461-.988-.782-1.67l-.052-.109a.251.251 0 0 0-.036-.057c.214.002.383.011.476.057.063.032.146.095.233.175a2.6 2.6 0 0 1 .331.363c.093.122.171.248.259.414.107.206.225.457.379.802.14.314.358.814.579 1.32l.001.003h-.001c.158.363.322.737.587 1.332.18.4.313.69.434.919.141.268.271.476.429.684l-.002.002c.031.043.08.104.128.164.166.21.357.454.45.865.066.301.098.69.007 1.03-.048.177-.133.335-.271.433-.241.168-.656.252-1.097.252s-.855-.084-1.097-.252c-.139-.098-.225-.257-.271-.436-.089-.333-.058-.721.012-1.022.076-.331.212-.569.32-.758.113-.199.211-.369.278-.594.205-.687.017-1.092-.521-2.254l-.006-.013-.767-1.65zm-5.341-2.347l.176-.085c.188-.088.377-.17.563-.243l.003-.002h.001v.001l-.001-.001v.001l.003.003.001.001.016.044 1.747 5.217.001.004h-.001c.206.615.59 1.124 1.088 1.48a2.995 2.995 0 0 0 1.592.558c-.047.123-.09.261-.126.416-.04.175-.07.373-.084.58a14.604 14.604 0 0 1-.878-.027c-.387-.028-.611-.083-.829-.191-.221-.109-.443-.277-.684-.572h.001c-.253-.312-.524-.761-.826-1.424-.572-1.251-1.248-3.232-1.933-5.272a1.18 1.18 0 0 0 .17-.488zm12.915 8.797v1.171c0 .72.115 1.462-.459 2.035l-.003-.002c-.573.571-1.318.668-2.042.668v.004l-7.5.001v-.004h-.002v.004c-1.815 0-3.563-.593-4.862-1.908-1.302-1.317-2.141-3.058-2.141-4.778h.004v-.002H6.03c0-1.175.391-2.135 1.002-2.943.647-.854 1.553-1.563 2.523-2.183.666 1.983 1.32 3.888 1.876 5.104.322.706.615 1.191.893 1.532h.001c.291.357.568.563.848.703.282.14.559.21 1.015.244h.001c.246.018.542.025.921.029.05.537.252 1.074.739 1.413.833.581 2.5.581 3.334 0 .485-.338.688-.625.74-1.162h3.166c-.041.124-.059-.057-.05.074zm.986-1.102H19.93v-.28c-.013-.207-.042-.28-.081-.455-.035-.154-.077-.137-.124-.26h3.31c.227 0 .472-.023.671.174l-.002.002c.186.185.314.283.331.492l-.027.298.017.029z" fill="#666"/></svg>